<?xml version="1.0" encoding="UTF-8"?>
<!DOCTYPE svg PUBLIC "-//W3C//DTD SVG 1.1//EN" "http://www.w3.org/Graphics/SVG/1.1/DTD/svg11.dtd">
<svg xmlns="http://www.w3.org/2000/svg" version="1.1" width="400px" height="400px" style="shape-rendering:geometricPrecision; text-rendering:geometricPrecision; image-rendering:optimizeQuality; fill-rule:evenodd; clip-rule:evenodd" xmlns:xlink="http://www.w3.org/1999/xlink">
<g><path style="opacity:0.914" fill="#6bcaef" d="M 177.5,50.5 C 214.872,46.8054 249.539,54.6387 281.5,74C 287.478,78.3131 293.144,82.9798 298.5,88C 293.977,92.8573 289.144,97.3573 284,101.5C 243.094,70.0285 198.261,63.1952 149.5,81C 104.596,101.623 78.7628,136.456 72,185.5C 68.1424,222.581 77.9757,255.415 101.5,284C 97.364,289.303 92.6973,294.137 87.5,298.5C 67.835,276.499 55.6684,250.832 51,221.5C 45.0151,159.988 66.8485,111.154 116.5,75C 134.747,62.881 154.747,55.2143 176.5,52C 177.056,51.6174 177.389,51.1174 177.5,50.5 Z"/></g>
<g><path style="opacity:0.911" fill="#09a6df" d="M 209.5,90.5 C 264.063,98.5615 297.229,129.561 309,183.5C 313.384,215.474 305.551,243.974 285.5,269C 284.5,269.667 283.5,269.667 282.5,269C 278.145,264.645 273.812,260.312 269.5,256C 296.93,216.754 295.93,178.254 266.5,140.5C 251.121,123.812 232.121,114.145 209.5,111.5C 209.5,104.5 209.5,97.5 209.5,90.5 Z"/></g>
<g><path style="opacity:0.915" fill="#1388ca" d="M 191.5,129.5 C 207.932,128.37 223.265,131.87 237.5,140C 241.864,143.368 245.864,147.034 249.5,151C 244.977,155.857 240.144,160.357 235,164.5C 218.925,150.752 200.758,147.252 180.5,154C 155.546,166.824 146.379,186.99 153,214.5C 162.485,239.504 180.652,250.671 207.5,248C 218.295,246.435 227.629,241.935 235.5,234.5C 241.046,238.862 245.546,243.862 249,249.5C 225.479,270.734 198.979,275.234 169.5,263C 137.792,245.244 125.292,218.411 132,182.5C 141.056,152.605 160.889,134.938 191.5,129.5 Z"/></g>
<g><path style="opacity:0.905" fill="#09a6df" d="M 90.5,209.5 C 97.5,209.5 104.5,209.5 111.5,209.5C 115.132,237.945 128.799,260.112 152.5,276C 164.2,283.066 176.866,287.233 190.5,288.5C 190.5,295.5 190.5,302.5 190.5,309.5C 156.319,305.831 129.152,290.164 109,262.5C 98.2796,246.399 92.1129,228.732 90.5,209.5 Z"/></g>
<g><path style="opacity:0.913" fill="#6bcaef" d="M 328.5,209.5 C 335.167,209.5 341.833,209.5 348.5,209.5C 346.414,247.738 331.747,280.404 304.5,307.5C 282.442,327.862 256.775,341.362 227.5,348C 221.509,348.499 215.509,348.666 209.5,348.5C 209.5,341.833 209.5,335.167 209.5,328.5C 265.668,322.16 303.502,292.493 323,239.5C 325.414,229.595 327.248,219.595 328.5,209.5 Z"/></g>
</svg>
