<?xml version="1.0" encoding="UTF-8"?>
<!DOCTYPE svg PUBLIC "-//W3C//DTD SVG 1.1//EN" "http://www.w3.org/Graphics/SVG/1.1/DTD/svg11.dtd">
<svg xmlns="http://www.w3.org/2000/svg" version="1.1" width="512px" height="435px" style="shape-rendering:geometricPrecision; text-rendering:geometricPrecision; image-rendering:optimizeQuality; fill-rule:evenodd; clip-rule:evenodd" xmlns:xlink="http://www.w3.org/1999/xlink">
<g><path style="opacity:0.992" fill="#5c3ba6" d="M 183.5,58.5 C 203.133,55.9833 216.3,63.9833 223,82.5C 224.838,92.224 223.171,101.224 218,109.5C 192.5,135 167,160.5 141.5,186C 246.167,186.333 350.833,186.667 455.5,187C 470.853,191.858 478.853,202.358 479.5,218.5C 478.853,234.642 470.853,245.142 455.5,250C 350.833,250.333 246.167,250.667 141.5,251C 167,276.5 192.5,302 218,327.5C 227.398,344.643 224.898,359.81 210.5,373C 199.218,379.517 187.551,380.184 175.5,375C 129.028,329.528 82.8609,283.694 37,237.5C 32.7462,232.07 30.9129,225.904 31.5,219C 30.9277,211.785 32.761,205.285 37,199.5C 82.1667,154.333 127.333,109.167 172.5,64C 176.017,61.6738 179.683,59.8405 183.5,58.5 Z"/></g>
</svg>
