<?xml version="1.0" encoding="UTF-8"?>
<!DOCTYPE svg PUBLIC "-//W3C//DTD SVG 1.1//EN" "http://www.w3.org/Graphics/SVG/1.1/DTD/svg11.dtd">
<svg xmlns="http://www.w3.org/2000/svg" version="1.1" width="463px" height="617px" style="shape-rendering:geometricPrecision; text-rendering:geometricPrecision; image-rendering:optimizeQuality; fill-rule:evenodd; clip-rule:evenodd" xmlns:xlink="http://www.w3.org/1999/xlink">
<g><path style="opacity:0.989" fill="#5c3ba7" d="M 462.5,482.5 C 462.5,485.833 462.5,489.167 462.5,492.5C 458.739,500.128 453.406,506.628 446.5,512C 378.893,568.238 301.559,588.572 214.5,573C 133.736,554.864 72.9031,510.03 32,438.5C 14.0125,404.527 3.17915,368.527 -0.5,330.5C -0.5,314.5 -0.5,298.5 -0.5,282.5C 11.1686,189.947 56.8353,119.78 136.5,72C 186.804,44.2726 240.47,33.6059 297.5,40C 310.085,47.3159 312.918,57.4826 306,70.5C 293.223,78.9446 280.723,87.778 268.5,97C 205.084,153.916 181.584,224.416 198,308.5C 217.453,380.949 261.953,431.116 331.5,459C 354.445,467.269 378.111,471.435 402.5,471.5C 418.188,470.634 433.855,469.8 449.5,469C 455.762,471.73 460.096,476.23 462.5,482.5 Z M 170.5,120.5 C 171.043,120.56 171.376,120.893 171.5,121.5C 128.932,196.59 122.098,274.924 151,356.5C 182.072,432.573 235.906,485.406 312.5,515C 231.904,529.082 164.07,506.249 109,446.5C 57.8798,382.549 45.2132,311.549 71,233.5C 90.7634,183.934 123.93,146.267 170.5,120.5 Z"/></g>
</svg>
